<svg xmlns="http://www.w3.org/2000/svg" width="10.463" height="19.293" viewBox="0 0 10.463 19.293">
  <path id="Path_639" data-name="Path 639" d="M183.815,40.623l-.882-.881-2.109-2.109-2.55-2.55-2.2-2.2c-.357-.357-.707-.722-1.072-1.072l-.014-.014v1.16l.882-.882,2.109-2.109,2.55-2.55,2.2-2.2c.357-.357.72-.709,1.072-1.072l.014-.014a.82.82,0,0,0-1.16-1.16l-.882.881-2.109,2.109-2.55,2.55-2.2,2.2c-.357.357-.72.709-1.072,1.072l-.014.014a.833.833,0,0,0,0,1.16l.882.881,2.109,2.109,2.55,2.55,2.2,2.2c.357.357.709.72,1.072,1.072l.014.014a.82.82,0,1,0,1.16-1.16Z" transform="translate(-173.588 -22.726)" fill="#fff"/>
</svg>
